HIERARCHY
ROOT SpineBase
{
  OFFSET 0.000000 0.000000 0.000000
  CHANNELS 6 Xposition Yposition Zposition Zrotation Xrotation Yrotation
  JOINT SpineMid
  {
    OFFSET -0.000000 33.457436 -0.000000
    CHANNELS 3 Zrotation Xrotation Yrotation
    JOINT SpineShoulder
    {
      OFFSET 0.033472 24.725519 -0.787650
      CHANNELS 3 Zrotation Xrotation Yrotation
      JOINT Neck
      {
        OFFSET 0.020739 8.140080 -0.588767
        CHANNELS 3 Zrotation Xrotation Yrotation
        JOINT Head
        {
          OFFSET 8.527503 9.561480 7.424198
          CHANNELS 3 Zrotation Xrotation Yrotation
          End Site
          {
            OFFSET 0 0 0
          }
        }
      }
      JOINT ShoulderLeft
      {
        OFFSET -4.990444 -4.923153 -14.880995
        CHANNELS 3 Zrotation Xrotation Yrotation
        JOINT ElbowLeft
        {
          OFFSET -0.235948 -26.824336 -8.345728
          CHANNELS 3 Zrotation Xrotation Yrotation
          JOINT WristLeft
          {
            OFFSET 5.998572 -24.384537 -1.598682
            CHANNELS 3 Zrotation Xrotation Yrotation
            JOINT HandLeft
            {
              OFFSET 0.050541 -7.966740 1.662405
              CHANNELS 3 Zrotation Xrotation Yrotation
              JOINT HandTipLeft
              {
                OFFSET 2.238567 -8.164362 1.165238
                CHANNELS 3 Zrotation Xrotation Yrotation
                End Site
                {
                  OFFSET 0 0 0
                }
              }
              JOINT ThumbLeft
              {
                OFFSET 4.971644 0.493756 -2.805611
                CHANNELS 3 Zrotation Xrotation Yrotation
                End Site
                {
                  OFFSET 0 0 0
                }
              }
            }
          }
        }
      }
      JOINT ShoulderRight
      {
        OFFSET 8.063287 -4.714279 9.188709
        CHANNELS 3 Zrotation Xrotation Yrotation
        JOINT ElbowRight
        {
          OFFSET -2.531675 -17.022775 -31.228111
          CHANNELS 3 Zrotation Xrotation Yrotation
          JOINT WristRight
          {
            OFFSET 1.990221 13.366948 21.265520
            CHANNELS 3 Zrotation Xrotation Yrotation
            JOINT HandRight
            {
              OFFSET -2.309639 3.051896 0.765521
              CHANNELS 3 Zrotation Xrotation Yrotation
              JOINT HandTipRight
              {
                OFFSET -0.730094 3.213388 1.603063
                CHANNELS 3 Zrotation Xrotation Yrotation
                End Site
                {
                  OFFSET 0 0 0
                }
              }
              JOINT ThumbRight
              {
                OFFSET -1.899995 4.746689 -4.686039
                CHANNELS 3 Zrotation Xrotation Yrotation
                End Site
                {
                  OFFSET 0 0 0
                }
              }
            }
          }
        }
      }
    }
  }
  JOINT HipLeft
  {
    OFFSET -3.711440 1.208286 -9.307452
    CHANNELS 3 Zrotation Xrotation Yrotation
    JOINT KneeLeft
    {
      OFFSET -4.304663 -36.410627 -5.951140
      CHANNELS 3 Zrotation Xrotation Yrotation
      JOINT AnkleLeft
      {
        OFFSET -9.223348 -36.706025 1.265863
        CHANNELS 3 Zrotation Xrotation Yrotation
        JOINT FootLeft
        {
          OFFSET 3.664737 -7.364941 -0.709419
          CHANNELS 3 Zrotation Xrotation Yrotation
          End Site
          {
            OFFSET 0 0 0
          }
        }
      }
    }
  }
  JOINT HipRight
  {
    OFFSET 3.934132 0.984192 1.494768
    CHANNELS 3 Zrotation Xrotation Yrotation
    JOINT KneeRight
    {
      OFFSET -20.548123 -37.357840 2.981986
      CHANNELS 3 Zrotation Xrotation Yrotation
      JOINT AnkleRight
      {
        OFFSET -4.289132 -29.852186 1.758841
        CHANNELS 3 Zrotation Xrotation Yrotation
        JOINT FootRight
        {
          OFFSET 5.718133 -9.038207 -9.868926
          CHANNELS 3 Zrotation Xrotation Yrotation
          End Site
          {
            OFFSET 0 0 0
          }
        }
      }
    }
  }
}
MOTION
Frames: 8
Frame Time: 0.033333
-7.504481 80.437769 299.287831 0.000000 -0.000000 -54.709985 -0.000000 0.000000 54.709985 -0.000000 0.000000 0.000000 -0.000000 0.000000 0.000000 0.000000 0.000000 0.000000 -0.000000 0.000000 0.000000 -0.000000 0.000000 0.000000 -0.000000 0.000000 0.000000 -0.000000 0.000000 0.000000 0.000000 0.000000 0.000000 0.000000 0.000000 0.000000 -0.000000 0.000000 0.000000 -0.000000 0.000000 0.000000 -0.000000 0.000000 0.000000 -0.000000 0.000000 0.000000 0.000000 0.000000 0.000000 0.000000 0.000000 0.000000 -0.000000 0.000000 54.709985 -0.000000 0.000000 0.000000 -0.000000 0.000000 0.000000 0.000000 0.000000 0.000000 -0.000000 0.000000 54.709985 -0.000000 0.000000 0.000000 -0.000000 0.000000 0.000000 0.000000 0.000000 0.000000
-7.475553 80.402453 299.258480 0.001705 0.120612 -54.080403 0.096676 -0.072138 54.080462 -0.000000 0.000000 0.000000 -0.000000 0.000000 0.000000 0.000000 0.000000 0.000000 -0.000000 0.000000 0.000000 -0.000000 0.000000 0.000000 -1.842008 2.156577 -0.337404 2.242732 -3.391529 0.137376 0.000000 0.000000 0.000000 0.000000 0.000000 0.000000 -0.000000 0.000000 0.000000 -0.000000 0.000000 0.000000 -3.201640 -5.395676 -3.549958 0.095372 8.556262 5.583319 0.000000 0.000000 0.000000 0.000000 0.000000 0.000000 0.096676 -0.072138 54.080462 -0.000000 0.000000 0.000000 0.464620 0.713852 0.306759 0.000000 0.000000 0.000000 0.096676 -0.072138 54.080462 -0.000000 0.000000 0.000000 -0.201260 -2.674450 -1.517551 0.000000 0.000000 0.000000
-7.443762 80.364682 299.225088 -0.004443 0.235342 -53.478978 0.191774 -0.136485 53.479216 -0.000000 0.000000 0.000000 -0.000000 0.000000 0.000000 0.000000 0.000000 0.000000 -0.000000 0.000000 0.000000 -0.000000 0.000000 0.000000 -3.336861 3.788001 -0.566083 4.082927 -6.019405 0.318940 0.000000 0.000000 0.000000 0.000000 0.000000 0.000000 -0.000000 0.000000 0.000000 -0.000000 0.000000 0.000000 -5.970338 -9.004386 -6.159218 -1.283348 16.303621 10.983989 0.000000 0.000000 0.000000 0.000000 0.000000 0.000000 0.191774 -0.136485 53.479216 -0.000000 0.000000 0.000000 0.738787 1.319620 0.574505 0.000000 0.000000 0.000000 0.191774 -0.136485 53.479216 -0.000000 0.000000 0.000000 -0.300508 -4.640933 -2.747417 0.000000 0.000000 0.000000
-7.409106 80.324457 299.187656 -0.018423 0.344271 -52.911422 0.285738 -0.192915 52.911959 -0.000000 0.000000 0.000000 -0.000000 0.000000 0.000000 0.000000 0.000000 0.000000 -0.000000 0.000000 0.000000 -0.946902 0.666834 0.232017 -3.567581 4.297415 -1.000154 5.549698 -7.937702 0.506103 0.000000 0.000000 0.000000 0.000000 0.000000 0.000000 -0.000000 0.000000 0.000000 -0.000000 0.000000 0.000000 -8.208844 -11.181862 -7.838484 -3.557155 23.243628 16.167997 0.000000 0.000000 0.000000 0.000000 0.000000 0.000000 0.285738 -0.192915 52.911959 -0.000000 0.000000 0.000000 0.827457 1.819330 0.808362 0.000000 0.000000 0.000000 0.285738 -0.192915 52.911959 -0.000000 0.000000 0.000000 -0.251735 -5.855321 -3.653606 0.000000 0.000000 0.000000
-7.371585 80.281777 299.146183 -0.040223 0.447475 -52.383300 0.379003 -0.241265 52.384255 -0.000000 0.000000 0.000000 -0.359620 -0.462312 0.690326 0.000000 0.000000 0.000000 -0.000000 0.000000 0.000000 -1.298495 0.832108 0.299958 -4.144774 4.870093 -1.205468 6.661594 -9.184602 0.673468 0.000000 0.000000 0.000000 0.000000 0.000000 0.000000 -0.000000 0.000000 0.000000 -0.000000 0.000000 0.000000 -9.917584 -12.227237 -8.644700 -5.845389 29.154887 20.578756 0.000000 0.000000 0.000000 0.000000 0.000000 0.000000 0.379003 -0.241265 52.384255 -0.811573 -0.087939 -0.006503 1.545477 2.302820 1.016269 0.000000 0.000000 0.000000 0.379003 -0.241265 52.384255 -0.000000 0.000000 0.000000 -0.023273 -6.295268 -4.214476 0.000000 0.000000 0.000000
-7.331201 80.236644 299.100669 -0.069838 0.545022 -51.899888 0.471993 -0.281337 51.901379 -0.000000 0.000000 0.000000 -0.396585 -0.531427 0.780450 0.000000 0.000000 0.000000 -0.000000 0.000000 0.000000 -1.665388 0.967930 0.362471 -4.475500 5.066250 -1.378213 7.429777 -9.781756 0.805605 0.000000 0.000000 0.000000 0.000000 0.000000 0.000000 -0.000000 0.000000 0.000000 -0.000000 0.000000 0.000000 -11.142478 -12.348331 -8.644800 -7.127501 33.736275 23.355027 0.000000 0.000000 0.000000 0.000000 0.000000 0.000000 0.471993 -0.281337 51.901379 -0.911026 -0.077051 -0.012645 1.371137 2.584519 1.199194 0.000000 0.000000 0.000000 0.471993 -0.281337 51.901379 -0.000000 0.000000 0.000000 0.399088 -5.952398 -4.423569 0.000000 0.000000 0.000000
-7.308752 80.218811 299.025527 -0.134966 0.660320 -51.334654 0.599913 -0.307157 51.337039 -0.000000 0.000000 0.000000 -0.393781 -0.594452 0.834679 0.000000 0.000000 0.000000 -0.000000 0.000000 0.000000 -2.179271 1.106585 0.437938 -4.654975 4.681191 -1.595148 8.021335 -9.234708 1.004003 0.000000 0.000000 0.000000 0.000000 0.000000 0.000000 -0.000000 0.000000 0.000000 -0.000000 0.000000 0.000000 -11.765235 -12.702162 -8.934920 -10.948369 39.524364 28.402218 0.000000 0.000000 0.000000 0.000000 0.000000 0.000000 0.599913 -0.307157 51.337039 -0.939647 -0.033375 -0.024243 0.830540 2.688642 1.355582 0.000000 0.000000 0.000000 0.599913 -0.307157 51.337039 -0.000000 0.000000 0.000000 1.257506 -5.031208 -4.693026 0.000000 0.000000 0.000000
-7.256074 80.136723 298.962646 -0.177895 0.755992 -50.816588 0.698395 -0.339734 50.819832 -0.000000 0.000000 0.000000 -0.247350 -0.744943 0.857508 0.000000 0.000000 0.000000 -0.000000 0.000000 0.000000 -2.644472 1.199348 0.498625 -4.537846 3.894138 -1.763610 8.395626 -8.097183 1.160390 0.000000 0.000000 0.000000 0.000000 0.000000 0.000000 -0.000000 0.000000 0.000000 -0.000000 0.000000 0.000000 -11.184223 -10.793022 -7.126462 -20.719401 49.069796 38.320988 0.000000 0.000000 0.000000 0.000000 0.000000 0.000000 0.698395 -0.339734 50.819832 -0.870727 0.005896 -0.031406 0.185755 2.672716 1.447268 0.000000 0.000000 0.000000 0.698395 -0.339734 50.819832 -0.000000 0.000000 0.000000 1.684356 -4.626115 -4.866162 0.000000 0.000000 0.000000
